%TF.GenerationSoftware,KiCad,Pcbnew,(5.1.8)-1*%
%TF.CreationDate,2020-12-17T13:05:59+01:00*%
%TF.ProjectId,voltage divider bob,766f6c74-6167-4652-9064-697669646572,rev?*%
%TF.SameCoordinates,Original*%
%TF.FileFunction,Legend,Top*%
%TF.FilePolarity,Positive*%
%FSLAX46Y46*%
G04 Gerber Fmt 4.6, Leading zero omitted, Abs format (unit mm)*
G04 Created by KiCad (PCBNEW (5.1.8)-1) date 2020-12-17 13:05:59*
%MOMM*%
%LPD*%
G01*
G04 APERTURE LIST*
%ADD10C,0.150000*%
%ADD11C,0.120000*%
G04 APERTURE END LIST*
D10*
X108238095Y-69500000D02*
X108142857Y-69452380D01*
X108000000Y-69452380D01*
X107857142Y-69500000D01*
X107761904Y-69595238D01*
X107714285Y-69690476D01*
X107666666Y-69880952D01*
X107666666Y-70023809D01*
X107714285Y-70214285D01*
X107761904Y-70309523D01*
X107857142Y-70404761D01*
X108000000Y-70452380D01*
X108095238Y-70452380D01*
X108238095Y-70404761D01*
X108285714Y-70357142D01*
X108285714Y-70023809D01*
X108095238Y-70023809D01*
X108714285Y-70452380D02*
X108714285Y-69452380D01*
X109285714Y-70452380D01*
X109285714Y-69452380D01*
X109761904Y-70452380D02*
X109761904Y-69452380D01*
X110000000Y-69452380D01*
X110142857Y-69500000D01*
X110238095Y-69595238D01*
X110285714Y-69690476D01*
X110333333Y-69880952D01*
X110333333Y-70023809D01*
X110285714Y-70214285D01*
X110238095Y-70309523D01*
X110142857Y-70404761D01*
X110000000Y-70452380D01*
X109761904Y-70452380D01*
X107404761Y-63452380D02*
X107738095Y-64452380D01*
X108071428Y-63452380D01*
X108404761Y-64452380D02*
X108404761Y-63452380D01*
X108880952Y-64452380D02*
X108880952Y-63452380D01*
X109452380Y-64452380D01*
X109452380Y-63452380D01*
X119904761Y-65452380D02*
X120238095Y-66452380D01*
X120571428Y-65452380D01*
X120904761Y-66452380D02*
X120904761Y-65452380D01*
X121380952Y-66452380D02*
X121380952Y-65452380D01*
X121952380Y-66452380D01*
X121952380Y-65452380D01*
X117857142Y-66952380D02*
X118190476Y-67952380D01*
X118523809Y-66952380D01*
X118857142Y-67571428D02*
X119619047Y-67571428D01*
X120238095Y-67952380D02*
X120142857Y-67904761D01*
X120095238Y-67857142D01*
X120047619Y-67761904D01*
X120047619Y-67476190D01*
X120095238Y-67380952D01*
X120142857Y-67333333D01*
X120238095Y-67285714D01*
X120380952Y-67285714D01*
X120476190Y-67333333D01*
X120523809Y-67380952D01*
X120571428Y-67476190D01*
X120571428Y-67761904D01*
X120523809Y-67857142D01*
X120476190Y-67904761D01*
X120380952Y-67952380D01*
X120238095Y-67952380D01*
X121428571Y-67285714D02*
X121428571Y-67952380D01*
X121000000Y-67285714D02*
X121000000Y-67809523D01*
X121047619Y-67904761D01*
X121142857Y-67952380D01*
X121285714Y-67952380D01*
X121380952Y-67904761D01*
X121428571Y-67857142D01*
X121761904Y-67285714D02*
X122142857Y-67285714D01*
X121904761Y-66952380D02*
X121904761Y-67809523D01*
X121952380Y-67904761D01*
X122047619Y-67952380D01*
X122142857Y-67952380D01*
X120309523Y-68785714D02*
X120309523Y-69595238D01*
X120261904Y-69690476D01*
X120214285Y-69738095D01*
X120119047Y-69785714D01*
X119976190Y-69785714D01*
X119880952Y-69738095D01*
X120309523Y-69404761D02*
X120214285Y-69452380D01*
X120023809Y-69452380D01*
X119928571Y-69404761D01*
X119880952Y-69357142D01*
X119833333Y-69261904D01*
X119833333Y-68976190D01*
X119880952Y-68880952D01*
X119928571Y-68833333D01*
X120023809Y-68785714D01*
X120214285Y-68785714D01*
X120309523Y-68833333D01*
X120785714Y-68785714D02*
X120785714Y-69452380D01*
X120785714Y-68880952D02*
X120833333Y-68833333D01*
X120928571Y-68785714D01*
X121071428Y-68785714D01*
X121166666Y-68833333D01*
X121214285Y-68928571D01*
X121214285Y-69452380D01*
X122119047Y-69452380D02*
X122119047Y-68452380D01*
X122119047Y-69404761D02*
X122023809Y-69452380D01*
X121833333Y-69452380D01*
X121738095Y-69404761D01*
X121690476Y-69357142D01*
X121642857Y-69261904D01*
X121642857Y-68976190D01*
X121690476Y-68880952D01*
X121738095Y-68833333D01*
X121833333Y-68785714D01*
X122023809Y-68785714D01*
X122119047Y-68833333D01*
D11*
%TO.C,con1*%
X107198160Y-70510400D02*
X105928160Y-70510400D01*
X107198160Y-62890400D02*
X107198160Y-70510400D01*
X104658160Y-62890400D02*
X107198160Y-62890400D01*
X104658160Y-70510400D02*
X104658160Y-62890400D01*
X105928160Y-70510400D02*
X104658160Y-70510400D01*
%TO.C,con2*%
X122753100Y-69437560D02*
X123555570Y-69437560D01*
X124170630Y-69437560D02*
X124973100Y-69437560D01*
X122753100Y-66962560D02*
X122753100Y-69437560D01*
X124973100Y-66962560D02*
X124973100Y-69437560D01*
X122753100Y-66962560D02*
X123299629Y-66962560D01*
X124426571Y-66962560D02*
X124973100Y-66962560D01*
X122753100Y-66202560D02*
X122753100Y-65442560D01*
X122753100Y-65442560D02*
X123863100Y-65442560D01*
%TO.C,R1*%
X112999520Y-63766700D02*
X113634520Y-63766700D01*
X113634520Y-63766700D02*
X113634520Y-66306700D01*
X113634520Y-66306700D02*
X112364520Y-66306700D01*
X112364520Y-66306700D02*
X112364520Y-63766700D01*
X112364520Y-63766700D02*
X112999520Y-63766700D01*
%TO.C,R2*%
X112336580Y-68874640D02*
X112971580Y-68874640D01*
X112336580Y-71414640D02*
X112336580Y-68874640D01*
X113606580Y-71414640D02*
X112336580Y-71414640D01*
X113606580Y-68874640D02*
X113606580Y-71414640D01*
X112971580Y-68874640D02*
X113606580Y-68874640D01*
%TO.C,con1*%
D10*
X108404761Y-67642857D02*
X108452380Y-67738095D01*
X108452380Y-67928571D01*
X108404761Y-68023809D01*
X108357142Y-68071428D01*
X108261904Y-68119047D01*
X107976190Y-68119047D01*
X107880952Y-68071428D01*
X107833333Y-68023809D01*
X107785714Y-67928571D01*
X107785714Y-67738095D01*
X107833333Y-67642857D01*
X108452380Y-67071428D02*
X108404761Y-67166666D01*
X108357142Y-67214285D01*
X108261904Y-67261904D01*
X107976190Y-67261904D01*
X107880952Y-67214285D01*
X107833333Y-67166666D01*
X107785714Y-67071428D01*
X107785714Y-66928571D01*
X107833333Y-66833333D01*
X107880952Y-66785714D01*
X107976190Y-66738095D01*
X108261904Y-66738095D01*
X108357142Y-66785714D01*
X108404761Y-66833333D01*
X108452380Y-66928571D01*
X108452380Y-67071428D01*
X107785714Y-66309523D02*
X108452380Y-66309523D01*
X107880952Y-66309523D02*
X107833333Y-66261904D01*
X107785714Y-66166666D01*
X107785714Y-66023809D01*
X107833333Y-65928571D01*
X107928571Y-65880952D01*
X108452380Y-65880952D01*
X108452380Y-64880952D02*
X108452380Y-65452380D01*
X108452380Y-65166666D02*
X107452380Y-65166666D01*
X107595238Y-65261904D01*
X107690476Y-65357142D01*
X107738095Y-65452380D01*
%TO.C,con2*%
X122857142Y-64904761D02*
X122761904Y-64952380D01*
X122571428Y-64952380D01*
X122476190Y-64904761D01*
X122428571Y-64857142D01*
X122380952Y-64761904D01*
X122380952Y-64476190D01*
X122428571Y-64380952D01*
X122476190Y-64333333D01*
X122571428Y-64285714D01*
X122761904Y-64285714D01*
X122857142Y-64333333D01*
X123428571Y-64952380D02*
X123333333Y-64904761D01*
X123285714Y-64857142D01*
X123238095Y-64761904D01*
X123238095Y-64476190D01*
X123285714Y-64380952D01*
X123333333Y-64333333D01*
X123428571Y-64285714D01*
X123571428Y-64285714D01*
X123666666Y-64333333D01*
X123714285Y-64380952D01*
X123761904Y-64476190D01*
X123761904Y-64761904D01*
X123714285Y-64857142D01*
X123666666Y-64904761D01*
X123571428Y-64952380D01*
X123428571Y-64952380D01*
X124190476Y-64285714D02*
X124190476Y-64952380D01*
X124190476Y-64380952D02*
X124238095Y-64333333D01*
X124333333Y-64285714D01*
X124476190Y-64285714D01*
X124571428Y-64333333D01*
X124619047Y-64428571D01*
X124619047Y-64952380D01*
X125047619Y-64047619D02*
X125095238Y-64000000D01*
X125190476Y-63952380D01*
X125428571Y-63952380D01*
X125523809Y-64000000D01*
X125571428Y-64047619D01*
X125619047Y-64142857D01*
X125619047Y-64238095D01*
X125571428Y-64380952D01*
X125000000Y-64952380D01*
X125619047Y-64952380D01*
%TO.C,R1*%
X114721900Y-65838366D02*
X114245710Y-66171700D01*
X114721900Y-66409795D02*
X113721900Y-66409795D01*
X113721900Y-66028842D01*
X113769520Y-65933604D01*
X113817139Y-65885985D01*
X113912377Y-65838366D01*
X114055234Y-65838366D01*
X114150472Y-65885985D01*
X114198091Y-65933604D01*
X114245710Y-66028842D01*
X114245710Y-66409795D01*
X114721900Y-64885985D02*
X114721900Y-65457414D01*
X114721900Y-65171700D02*
X113721900Y-65171700D01*
X113864758Y-65266938D01*
X113959996Y-65362176D01*
X114007615Y-65457414D01*
%TO.C,R2*%
X114693960Y-70946306D02*
X114217770Y-71279640D01*
X114693960Y-71517735D02*
X113693960Y-71517735D01*
X113693960Y-71136782D01*
X113741580Y-71041544D01*
X113789199Y-70993925D01*
X113884437Y-70946306D01*
X114027294Y-70946306D01*
X114122532Y-70993925D01*
X114170151Y-71041544D01*
X114217770Y-71136782D01*
X114217770Y-71517735D01*
X113789199Y-70565354D02*
X113741580Y-70517735D01*
X113693960Y-70422497D01*
X113693960Y-70184401D01*
X113741580Y-70089163D01*
X113789199Y-70041544D01*
X113884437Y-69993925D01*
X113979675Y-69993925D01*
X114122532Y-70041544D01*
X114693960Y-70612973D01*
X114693960Y-69993925D01*
%TD*%
M02*
