%TF.GenerationSoftware,KiCad,Pcbnew,(5.1.8)-1*%
%TF.CreationDate,2020-12-17T13:01:33+01:00*%
%TF.ProjectId,voltage divider bob,766f6c74-6167-4652-9064-697669646572,rev?*%
%TF.SameCoordinates,Original*%
%TF.FileFunction,Legend,Top*%
%TF.FilePolarity,Positive*%
%FSLAX46Y46*%
G04 Gerber Fmt 4.6, Leading zero omitted, Abs format (unit mm)*
G04 Created by KiCad (PCBNEW (5.1.8)-1) date 2020-12-17 13:01:33*
%MOMM*%
%LPD*%
G01*
G04 APERTURE LIST*
%ADD10C,0.120000*%
%ADD11C,0.150000*%
G04 APERTURE END LIST*
D10*
%TO.C,con1*%
X105928160Y-70510400D02*
X104658160Y-70510400D01*
X104658160Y-70510400D02*
X104658160Y-62890400D01*
X104658160Y-62890400D02*
X107198160Y-62890400D01*
X107198160Y-62890400D02*
X107198160Y-70510400D01*
X107198160Y-70510400D02*
X105928160Y-70510400D01*
%TO.C,con2*%
X122753100Y-65442560D02*
X123863100Y-65442560D01*
X122753100Y-66202560D02*
X122753100Y-65442560D01*
X124426571Y-66962560D02*
X124973100Y-66962560D01*
X122753100Y-66962560D02*
X123299629Y-66962560D01*
X124973100Y-66962560D02*
X124973100Y-69437560D01*
X122753100Y-66962560D02*
X122753100Y-69437560D01*
X124170630Y-69437560D02*
X124973100Y-69437560D01*
X122753100Y-69437560D02*
X123555570Y-69437560D01*
%TO.C,R1*%
X112364520Y-63766700D02*
X112999520Y-63766700D01*
X112364520Y-66306700D02*
X112364520Y-63766700D01*
X113634520Y-66306700D02*
X112364520Y-66306700D01*
X113634520Y-63766700D02*
X113634520Y-66306700D01*
X112999520Y-63766700D02*
X113634520Y-63766700D01*
%TO.C,R2*%
X112971580Y-68874640D02*
X113606580Y-68874640D01*
X113606580Y-68874640D02*
X113606580Y-71414640D01*
X113606580Y-71414640D02*
X112336580Y-71414640D01*
X112336580Y-71414640D02*
X112336580Y-68874640D01*
X112336580Y-68874640D02*
X112971580Y-68874640D01*
%TO.C,con1*%
D11*
X108588441Y-69037057D02*
X108636060Y-69132295D01*
X108636060Y-69322771D01*
X108588441Y-69418009D01*
X108540822Y-69465628D01*
X108445584Y-69513247D01*
X108159870Y-69513247D01*
X108064632Y-69465628D01*
X108017013Y-69418009D01*
X107969394Y-69322771D01*
X107969394Y-69132295D01*
X108017013Y-69037057D01*
X108636060Y-68465628D02*
X108588441Y-68560866D01*
X108540822Y-68608485D01*
X108445584Y-68656104D01*
X108159870Y-68656104D01*
X108064632Y-68608485D01*
X108017013Y-68560866D01*
X107969394Y-68465628D01*
X107969394Y-68322771D01*
X108017013Y-68227533D01*
X108064632Y-68179914D01*
X108159870Y-68132295D01*
X108445584Y-68132295D01*
X108540822Y-68179914D01*
X108588441Y-68227533D01*
X108636060Y-68322771D01*
X108636060Y-68465628D01*
X107969394Y-67703723D02*
X108636060Y-67703723D01*
X108064632Y-67703723D02*
X108017013Y-67656104D01*
X107969394Y-67560866D01*
X107969394Y-67418009D01*
X108017013Y-67322771D01*
X108112251Y-67275152D01*
X108636060Y-67275152D01*
X108636060Y-66275152D02*
X108636060Y-66846580D01*
X108636060Y-66560866D02*
X107636060Y-66560866D01*
X107778918Y-66656104D01*
X107874156Y-66751342D01*
X107921775Y-66846580D01*
%TO.C,con2*%
X122126641Y-68168377D02*
X122174260Y-68263615D01*
X122174260Y-68454091D01*
X122126641Y-68549329D01*
X122079022Y-68596948D01*
X121983784Y-68644567D01*
X121698070Y-68644567D01*
X121602832Y-68596948D01*
X121555213Y-68549329D01*
X121507594Y-68454091D01*
X121507594Y-68263615D01*
X121555213Y-68168377D01*
X122174260Y-67596948D02*
X122126641Y-67692186D01*
X122079022Y-67739805D01*
X121983784Y-67787424D01*
X121698070Y-67787424D01*
X121602832Y-67739805D01*
X121555213Y-67692186D01*
X121507594Y-67596948D01*
X121507594Y-67454091D01*
X121555213Y-67358853D01*
X121602832Y-67311234D01*
X121698070Y-67263615D01*
X121983784Y-67263615D01*
X122079022Y-67311234D01*
X122126641Y-67358853D01*
X122174260Y-67454091D01*
X122174260Y-67596948D01*
X121507594Y-66835043D02*
X122174260Y-66835043D01*
X121602832Y-66835043D02*
X121555213Y-66787424D01*
X121507594Y-66692186D01*
X121507594Y-66549329D01*
X121555213Y-66454091D01*
X121650451Y-66406472D01*
X122174260Y-66406472D01*
X121269499Y-65977900D02*
X121221880Y-65930281D01*
X121174260Y-65835043D01*
X121174260Y-65596948D01*
X121221880Y-65501710D01*
X121269499Y-65454091D01*
X121364737Y-65406472D01*
X121459975Y-65406472D01*
X121602832Y-65454091D01*
X122174260Y-66025520D01*
X122174260Y-65406472D01*
%TO.C,R1*%
X114721900Y-65838366D02*
X114245710Y-66171700D01*
X114721900Y-66409795D02*
X113721900Y-66409795D01*
X113721900Y-66028842D01*
X113769520Y-65933604D01*
X113817139Y-65885985D01*
X113912377Y-65838366D01*
X114055234Y-65838366D01*
X114150472Y-65885985D01*
X114198091Y-65933604D01*
X114245710Y-66028842D01*
X114245710Y-66409795D01*
X114721900Y-64885985D02*
X114721900Y-65457414D01*
X114721900Y-65171700D02*
X113721900Y-65171700D01*
X113864758Y-65266938D01*
X113959996Y-65362176D01*
X114007615Y-65457414D01*
%TO.C,R2*%
X114693960Y-70946306D02*
X114217770Y-71279640D01*
X114693960Y-71517735D02*
X113693960Y-71517735D01*
X113693960Y-71136782D01*
X113741580Y-71041544D01*
X113789199Y-70993925D01*
X113884437Y-70946306D01*
X114027294Y-70946306D01*
X114122532Y-70993925D01*
X114170151Y-71041544D01*
X114217770Y-71136782D01*
X114217770Y-71517735D01*
X113789199Y-70565354D02*
X113741580Y-70517735D01*
X113693960Y-70422497D01*
X113693960Y-70184401D01*
X113741580Y-70089163D01*
X113789199Y-70041544D01*
X113884437Y-69993925D01*
X113979675Y-69993925D01*
X114122532Y-70041544D01*
X114693960Y-70612973D01*
X114693960Y-69993925D01*
%TD*%
M02*
